<svg width="40" height="40" viewBox="0 0 40 40" fill="none" xmlns="http://www.w3.org/2000/svg">
    <path
        d="M16.2803 15.2197C15.9874 14.9268 15.5126 14.9268 15.2197 15.2197C14.9268 15.5126 14.9268 15.9874 15.2197 16.2803L18.9393 20L15.2197 23.7197C14.9268 24.0126 14.9268 24.4874 15.2197 24.7803C15.5126 25.0732 15.9874 25.0732 16.2803 24.7803L20 21.0607L23.7197 24.7803C24.0126 25.0732 24.4874 25.0732 24.7803 24.7803C25.0732 24.4874 25.0732 24.0126 24.7803 23.7197L21.0607 20L24.7803 16.2803C25.0732 15.9874 25.0732 15.5126 24.7803 15.2197C24.4874 14.9268 24.0126 14.9268 23.7197 15.2197L20 18.9393L16.2803 15.2197Z"
        fill="white" />
    <circle cx="19.665" cy="19.665" r="16.165" stroke="#565656" />
</svg>
    