<svg width="40" height="40" viewBox="0 0 40 40" fill="none" xmlns="http://www.w3.org/2000/svg">
    <circle cx="19.665" cy="19.665" r="16.165" fill="#262626" stroke="#262626" />
    <path
        d="M20 11.6667C15.405 11.6667 11.6666 15.405 11.6666 20V23.4525C11.6666 24.3059 12.4141 25 13.3333 25H14.1666C14.3876 25 14.5996 24.9122 14.7559 24.7559C14.9122 24.5997 15 24.3877 15 24.1667V19.8809C15 19.6598 14.9122 19.4479 14.7559 19.2916C14.5996 19.1353 14.3876 19.0475 14.1666 19.0475H13.41C13.8733 15.8225 16.6483 13.3334 20 13.3334C23.3516 13.3334 26.1266 15.8225 26.59 19.0475H25.8333C25.6123 19.0475 25.4003 19.1353 25.244 19.2916C25.0878 19.4479 25 19.6598 25 19.8809V25C25 25.9192 24.2525 26.6667 23.3333 26.6667H21.6666V25.8334H18.3333V28.3334H23.3333C25.1716 28.3334 26.6666 26.8384 26.6666 25C27.5858 25 28.3333 24.3059 28.3333 23.4525V20C28.3333 15.405 24.595 11.6667 20 11.6667Z"
        fill="white" />
</svg>
    